#N canvas 6 23 1120 690 12;
#X obj 48 61 tgl 15 0 empty empty empty 17 7 0 10 -262144 -1 -1 1 1
;
#X obj 518 170 metro 400;
#X obj 118 15 inlet;
#X obj 48 478 + 60;
#X floatatom 48 621 5 0 0 0 - - -;
#X obj 48 649 outlet;
#X obj 69 15 inlet;
#X floatatom 69 59 5 0 0 0 - - -;
#X floatatom 113 59 5 0 0 0 - - -;
#N canvas 0 23 504 352 major 0;
#X obj 115 39 inlet;
#X obj 175 235 outlet;
#X msg 49 178 0;
#X msg 84 178 2;
#X msg 119 178 4;
#X msg 154 178 5;
#X msg 189 178 7;
#X msg 224 178 9;
#X msg 259 178 11;
#X msg 294 178 12;
#X obj 115 105 sel 0 1 2 3 4 5 6 7 8 9 10 11 12;
#X obj 115 72 random 13;
#X connect 0 0 11 0;
#X connect 2 0 1 0;
#X connect 3 0 1 0;
#X connect 4 0 1 0;
#X connect 5 0 1 0;
#X connect 6 0 1 0;
#X connect 7 0 1 0;
#X connect 8 0 1 0;
#X connect 9 0 1 0;
#X connect 10 0 2 0;
#X connect 10 1 3 0;
#X connect 10 2 4 0;
#X connect 10 3 5 0;
#X connect 10 4 6 0;
#X connect 10 5 7 0;
#X connect 10 6 8 0;
#X connect 10 7 9 0;
#X connect 10 8 2 0;
#X connect 10 9 2 0;
#X connect 10 10 6 0;
#X connect 10 11 4 0;
#X connect 10 12 8 0;
#X connect 11 0 10 0;
#X restore 110 343 pd major;
#N canvas 0 23 504 352 minor 0;
#X obj 115 39 inlet;
#X obj 175 215 outlet;
#X msg 49 158 0;
#X msg 84 158 2;
#X msg 154 158 5;
#X msg 189 158 7;
#X msg 294 158 12;
#X msg 119 158 3;
#X msg 224 158 8;
#X msg 259 158 10;
#X obj 115 105 sel 0 1 2 3 4 5 6 7 8 9 10 11 12;
#X obj 115 72 random 13;
#X connect 0 0 11 0;
#X connect 2 0 1 0;
#X connect 3 0 1 0;
#X connect 4 0 1 0;
#X connect 5 0 1 0;
#X connect 6 0 1 0;
#X connect 7 0 1 0;
#X connect 8 0 1 0;
#X connect 9 0 1 0;
#X connect 10 0 2 0;
#X connect 10 1 3 0;
#X connect 10 2 7 0;
#X connect 10 3 4 0;
#X connect 10 4 5 0;
#X connect 10 5 8 0;
#X connect 10 6 9 0;
#X connect 10 7 6 0;
#X connect 10 8 2 0;
#X connect 10 9 2 0;
#X connect 10 10 5 0;
#X connect 10 11 7 0;
#X connect 10 12 9 0;
#X connect 11 0 10 0;
#X restore 506 344 pd minor;
#X obj 48 83 hradio 15 1 0 9 empty empty empty 0 -8 0 10 -262144 -1
-1 1;
#N canvas 0 23 504 352 dorian 0;
#X obj 115 39 inlet;
#X obj 175 215 outlet;
#X msg 49 158 0;
#X msg 84 158 2;
#X msg 154 158 5;
#X msg 189 158 7;
#X msg 294 158 12;
#X msg 119 158 3;
#X msg 259 158 10;
#X msg 224 158 9;
#X obj 115 105 sel 0 1 2 3 4 5 6 7 8 9 10 11 12;
#X obj 115 72 random 13;
#X connect 0 0 11 0;
#X connect 2 0 1 0;
#X connect 3 0 1 0;
#X connect 4 0 1 0;
#X connect 5 0 1 0;
#X connect 6 0 1 0;
#X connect 7 0 1 0;
#X connect 8 0 1 0;
#X connect 9 0 1 0;
#X connect 10 0 2 0;
#X connect 10 1 3 0;
#X connect 10 2 7 0;
#X connect 10 3 4 0;
#X connect 10 4 5 0;
#X connect 10 5 9 0;
#X connect 10 6 8 0;
#X connect 10 7 6 0;
#X connect 10 8 2 0;
#X connect 10 9 2 0;
#X connect 10 10 5 0;
#X connect 10 11 7 0;
#X connect 10 12 8 0;
#X connect 11 0 10 0;
#X restore 175 343 pd dorian;
#X symbolatom 48 103 16 0 0 0 - cur_scale -;
#X msg 877 271 \; cur_scale set dorian;
#X obj 254 32 loadbang;
#X msg 877 310 \; cur_scale set phrygian;
#N canvas 115 23 1325 544 scale_router 0;
#X obj 34 367 spigot;
#X obj 37 157 bng 15 250 50 0 empty empty empty 17 7 0 10 -262144 -1
-1;
#X obj 161 157 bng 15 250 50 0 empty empty empty 17 7 0 10 -262144
-1 -1;
#X msg 37 339 1;
#X msg 73 339 0;
#X obj 159 368 spigot;
#X msg 161 340 1;
#X msg 198 340 0;
#X obj 37 50 inlet;
#X obj 386 53 inlet;
#X obj 34 397 outlet;
#X obj 159 397 outlet;
#X obj 285 157 bng 15 250 50 0 empty empty empty 17 7 0 10 -262144
-1 -1;
#X obj 283 368 spigot;
#X msg 285 340 1;
#X msg 322 340 0;
#X obj 283 397 outlet;
#X obj 409 157 bng 15 250 50 0 empty empty empty 17 7 0 10 -262144
-1 -1;
#X obj 407 368 spigot;
#X msg 409 340 1;
#X msg 446 340 0;
#X obj 407 397 outlet;
#X obj 533 157 bng 15 250 50 0 empty empty empty 17 7 0 10 -262144
-1 -1;
#X obj 531 368 spigot;
#X msg 533 340 1;
#X msg 570 340 0;
#X obj 531 397 outlet;
#X obj 657 157 bng 15 250 50 0 empty empty empty 17 7 0 10 -262144
-1 -1;
#X obj 655 368 spigot;
#X msg 657 340 1;
#X msg 694 340 0;
#X obj 655 397 outlet;
#X obj 781 157 bng 15 250 50 0 empty empty empty 17 7 0 10 -262144
-1 -1;
#X obj 779 368 spigot;
#X msg 781 340 1;
#X msg 818 340 0;
#X obj 779 397 outlet;
#X obj 905 157 bng 15 250 50 0 empty empty empty 17 7 0 10 -262144
-1 -1;
#X obj 903 368 spigot;
#X msg 905 340 1;
#X msg 942 340 0;
#X obj 903 397 outlet;
#X obj 37 92 sel 0 1 2 3 4 5 6 7 8, f 160;
#X obj 1029 157 bng 15 250 50 0 empty empty empty 17 7 0 10 -262144
-1 -1;
#X obj 1027 368 spigot;
#X msg 1029 340 1;
#X msg 1066 340 0;
#X obj 1027 397 outlet;
#X connect 0 0 10 0;
#X connect 1 0 3 0;
#X connect 1 0 7 0;
#X connect 1 0 15 0;
#X connect 1 0 20 0;
#X connect 1 0 25 0;
#X connect 1 0 30 0;
#X connect 1 0 35 0;
#X connect 1 0 40 0;
#X connect 1 0 46 0;
#X connect 2 0 6 0;
#X connect 2 0 4 0;
#X connect 2 0 15 0;
#X connect 2 0 20 0;
#X connect 2 0 25 0;
#X connect 2 0 30 0;
#X connect 2 0 35 0;
#X connect 2 0 40 0;
#X connect 2 0 46 0;
#X connect 3 0 0 1;
#X connect 4 0 0 1;
#X connect 5 0 11 0;
#X connect 6 0 5 1;
#X connect 7 0 5 1;
#X connect 8 0 42 0;
#X connect 9 0 0 0;
#X connect 9 0 5 0;
#X connect 9 0 13 0;
#X connect 9 0 18 0;
#X connect 9 0 23 0;
#X connect 9 0 28 0;
#X connect 9 0 33 0;
#X connect 9 0 38 0;
#X connect 9 0 44 0;
#X connect 12 0 14 0;
#X connect 12 0 4 0;
#X connect 12 0 7 0;
#X connect 12 0 20 0;
#X connect 12 0 25 0;
#X connect 12 0 30 0;
#X connect 12 0 35 0;
#X connect 12 0 40 0;
#X connect 12 0 46 0;
#X connect 13 0 16 0;
#X connect 14 0 13 1;
#X connect 15 0 13 1;
#X connect 17 0 19 0;
#X connect 17 0 4 0;
#X connect 17 0 7 0;
#X connect 17 0 15 0;
#X connect 17 0 25 0;
#X connect 17 0 30 0;
#X connect 17 0 35 0;
#X connect 17 0 40 0;
#X connect 17 0 46 0;
#X connect 18 0 21 0;
#X connect 19 0 18 1;
#X connect 20 0 18 1;
#X connect 22 0 24 0;
#X connect 22 0 4 0;
#X connect 22 0 7 0;
#X connect 22 0 15 0;
#X connect 22 0 20 0;
#X connect 22 0 30 0;
#X connect 22 0 35 0;
#X connect 22 0 40 0;
#X connect 22 0 46 0;
#X connect 23 0 26 0;
#X connect 24 0 23 1;
#X connect 25 0 23 1;
#X connect 27 0 29 0;
#X connect 27 0 4 0;
#X connect 27 0 7 0;
#X connect 27 0 15 0;
#X connect 27 0 20 0;
#X connect 27 0 25 0;
#X connect 27 0 35 0;
#X connect 27 0 40 0;
#X connect 27 0 46 0;
#X connect 28 0 31 0;
#X connect 29 0 28 1;
#X connect 30 0 28 1;
#X connect 32 0 34 0;
#X connect 32 0 4 0;
#X connect 32 0 7 0;
#X connect 32 0 15 0;
#X connect 32 0 20 0;
#X connect 32 0 25 0;
#X connect 32 0 30 0;
#X connect 32 0 40 0;
#X connect 32 0 46 0;
#X connect 33 0 36 0;
#X connect 34 0 33 1;
#X connect 35 0 33 1;
#X connect 37 0 39 0;
#X connect 37 0 35 0;
#X connect 37 0 30 0;
#X connect 37 0 25 0;
#X connect 37 0 20 0;
#X connect 37 0 15 0;
#X connect 37 0 7 0;
#X connect 37 0 4 0;
#X connect 37 0 46 0;
#X connect 38 0 41 0;
#X connect 39 0 38 1;
#X connect 40 0 38 1;
#X connect 42 0 1 0;
#X connect 42 1 2 0;
#X connect 42 2 12 0;
#X connect 42 3 17 0;
#X connect 42 4 22 0;
#X connect 42 5 27 0;
#X connect 42 6 32 0;
#X connect 42 7 37 0;
#X connect 42 8 43 0;
#X connect 43 0 45 0;
#X connect 43 0 40 0;
#X connect 43 0 35 0;
#X connect 43 0 30 0;
#X connect 43 0 25 0;
#X connect 43 0 20 0;
#X connect 43 0 15 0;
#X connect 43 0 7 0;
#X connect 43 0 4 0;
#X connect 44 0 47 0;
#X connect 45 0 44 1;
#X connect 46 0 44 1;
#X restore 416 197 pd scale_router;
#X msg 877 426 \; cur_scale set aeolian;
#X msg 877 232 \; cur_scale set ionian;
#N canvas 0 23 504 352 phrygian 0;
#X obj 115 39 inlet;
#X obj 175 215 outlet;
#X msg 49 158 0;
#X msg 154 158 5;
#X msg 189 158 7;
#X msg 294 158 12;
#X msg 119 158 3;
#X msg 224 158 8;
#X msg 259 158 10;
#X msg 84 158 1;
#X obj 115 105 sel 0 1 2 3 4 5 6 7 8 9 10 11 12;
#X obj 115 72 random 13;
#X connect 0 0 11 0;
#X connect 2 0 1 0;
#X connect 3 0 1 0;
#X connect 4 0 1 0;
#X connect 5 0 1 0;
#X connect 6 0 1 0;
#X connect 7 0 1 0;
#X connect 8 0 1 0;
#X connect 9 0 1 0;
#X connect 10 0 2 0;
#X connect 10 1 9 0;
#X connect 10 2 6 0;
#X connect 10 3 3 0;
#X connect 10 4 4 0;
#X connect 10 5 7 0;
#X connect 10 6 8 0;
#X connect 10 7 5 0;
#X connect 10 8 2 0;
#X connect 10 9 2 0;
#X connect 10 10 4 0;
#X connect 10 11 6 0;
#X connect 10 12 8 0;
#X connect 11 0 10 0;
#X restore 247 343 pd phrygian;
#X msg 877 349 \; cur_scale set lydian;
#X msg 877 387 \; cur_scale set mixolydian;
#X msg 877 466 \; cur_scale set locrian;
#N canvas 0 23 504 352 lydian 0;
#X obj 115 39 inlet;
#X obj 175 215 outlet;
#X msg 49 158 0;
#X msg 84 158 2;
#X msg 119 158 4;
#X msg 189 158 7;
#X msg 224 158 9;
#X msg 259 158 11;
#X msg 294 158 12;
#X msg 154 158 6;
#X obj 115 105 sel 0 1 2 3 4 5 6 7 8 9 10 11 12;
#X obj 115 72 random 13;
#X connect 0 0 11 0;
#X connect 2 0 1 0;
#X connect 3 0 1 0;
#X connect 4 0 1 0;
#X connect 5 0 1 0;
#X connect 6 0 1 0;
#X connect 7 0 1 0;
#X connect 8 0 1 0;
#X connect 9 0 1 0;
#X connect 10 0 2 0;
#X connect 10 1 3 0;
#X connect 10 2 4 0;
#X connect 10 3 9 0;
#X connect 10 4 5 0;
#X connect 10 5 6 0;
#X connect 10 6 7 0;
#X connect 10 7 8 0;
#X connect 10 8 2 0;
#X connect 10 9 2 0;
#X connect 10 10 5 0;
#X connect 10 11 4 0;
#X connect 10 12 7 0;
#X connect 11 0 10 0;
#X restore 333 343 pd lydian;
#N canvas 0 23 504 352 mixolydian 0;
#X obj 115 39 inlet;
#X obj 175 215 outlet;
#X msg 49 158 0;
#X msg 84 158 2;
#X msg 119 158 4;
#X msg 154 158 5;
#X msg 189 158 7;
#X msg 224 158 9;
#X msg 294 158 12;
#X msg 259 158 10;
#X obj 115 105 sel 0 1 2 3 4 5 6 7 8 9 10 11 12;
#X obj 115 72 random 13;
#X connect 0 0 11 0;
#X connect 2 0 1 0;
#X connect 3 0 1 0;
#X connect 4 0 1 0;
#X connect 5 0 1 0;
#X connect 6 0 1 0;
#X connect 7 0 1 0;
#X connect 8 0 1 0;
#X connect 9 0 1 0;
#X connect 10 0 2 0;
#X connect 10 1 3 0;
#X connect 10 2 4 0;
#X connect 10 3 5 0;
#X connect 10 4 6 0;
#X connect 10 5 7 0;
#X connect 10 6 9 0;
#X connect 10 7 8 0;
#X connect 10 8 2 0;
#X connect 10 9 2 0;
#X connect 10 10 6 0;
#X connect 10 11 4 0;
#X connect 10 12 9 0;
#X connect 11 0 10 0;
#X restore 405 343 pd mixolydian;
#N canvas 0 23 504 352 locrian 0;
#X obj 115 39 inlet;
#X obj 175 215 outlet;
#X msg 49 158 0;
#X msg 154 158 5;
#X msg 294 158 12;
#X msg 119 158 3;
#X msg 224 158 8;
#X msg 259 158 10;
#X msg 84 158 1;
#X msg 189 158 6;
#X obj 115 105 sel 0 1 2 3 4 5 6 7 8 9 10 11 12;
#X obj 115 72 random 13;
#X connect 0 0 11 0;
#X connect 2 0 1 0;
#X connect 3 0 1 0;
#X connect 4 0 1 0;
#X connect 5 0 1 0;
#X connect 6 0 1 0;
#X connect 7 0 1 0;
#X connect 8 0 1 0;
#X connect 9 0 1 0;
#X connect 10 0 2 0;
#X connect 10 1 8 0;
#X connect 10 2 5 0;
#X connect 10 3 3 0;
#X connect 10 4 9 0;
#X connect 10 5 6 0;
#X connect 10 6 7 0;
#X connect 10 7 4 0;
#X connect 10 8 2 0;
#X connect 10 9 2 0;
#X connect 10 10 9 0;
#X connect 10 11 5 0;
#X connect 10 12 7 0;
#X connect 11 0 10 0;
#X restore 572 344 pd locrian;
#X msg 254 55 set 0;
#X msg 877 506 \; cur_scale set harmonic_minor;
#N canvas 0 23 504 352 harmonic_minor 0;
#X obj 115 39 inlet;
#X obj 175 215 outlet;
#X msg 49 158 0;
#X msg 84 158 2;
#X msg 154 158 5;
#X msg 189 158 7;
#X msg 294 158 12;
#X msg 119 158 3;
#X msg 224 158 8;
#X msg 259 158 11;
#X obj 115 105 sel 0 1 2 3 4 5 6 7 8 9 10 11 12;
#X obj 115 72 random 13;
#X connect 0 0 11 0;
#X connect 2 0 1 0;
#X connect 3 0 1 0;
#X connect 4 0 1 0;
#X connect 5 0 1 0;
#X connect 6 0 1 0;
#X connect 7 0 1 0;
#X connect 8 0 1 0;
#X connect 9 0 1 0;
#X connect 10 0 2 0;
#X connect 10 1 3 0;
#X connect 10 2 7 0;
#X connect 10 3 4 0;
#X connect 10 4 5 0;
#X connect 10 5 8 0;
#X connect 10 6 9 0;
#X connect 10 7 6 0;
#X connect 10 8 2 0;
#X connect 10 9 2 0;
#X connect 10 10 5 0;
#X connect 10 11 7 0;
#X connect 10 12 9 0;
#X connect 11 0 10 0;
#X restore 651 344 pd harmonic_minor;
#X obj 300 447 random 6;
#X obj 300 474 sel 0 1 2 3 4 5;
#X obj 48 594 +;
#X msg 351 503 12;
#X msg 395 503 -12;
#X obj 168 15 inlet;
#X obj 300 539 * 1;
#X msg 300 503 0;
#X obj 180 105 tgl 15 0 empty empty empty 17 7 0 10 -262144 -1 -1 0
1;
#X text 430 476 octave range;
#N canvas 0 23 504 352 blues 0;
#X obj 115 39 inlet;
#X obj 235 255 outlet;
#X msg 109 198 0;
#X msg 249 198 7;
#X obj 115 105 sel 0 1 2 3 4 5 6 7 8 9 10 11 12, f 46;
#X msg 144 198 3;
#X msg 179 198 5;
#X msg 214 198 6;
#X msg 284 198 10;
#X msg 319 198 12;
#X obj 115 72 random 13;
#X connect 0 0 10 0;
#X connect 2 0 1 0;
#X connect 3 0 1 0;
#X connect 4 0 2 0;
#X connect 4 1 5 0;
#X connect 4 2 6 0;
#X connect 4 3 7 0;
#X connect 4 4 3 0;
#X connect 4 5 8 0;
#X connect 4 6 9 0;
#X connect 4 7 7 0;
#X connect 4 8 2 0;
#X connect 4 9 2 0;
#X connect 4 10 3 0;
#X connect 4 11 6 0;
#X connect 4 12 8 0;
#X connect 5 0 1 0;
#X connect 6 0 1 0;
#X connect 7 0 1 0;
#X connect 8 0 1 0;
#X connect 9 0 1 0;
#X connect 10 0 4 0;
#X restore 779 344 pd blues;
#X msg 877 546 \; cur_scale set blues;
#X connect 0 0 1 0;
#X connect 1 0 17 1;
#X connect 1 0 30 0;
#X connect 2 0 3 1;
#X connect 3 0 32 0;
#X connect 4 0 5 0;
#X connect 4 0 8 0;
#X connect 6 0 7 0;
#X connect 7 0 1 1;
#X connect 9 0 3 0;
#X connect 10 0 3 0;
#X connect 11 0 17 0;
#X connect 12 0 3 0;
#X connect 15 0 27 0;
#X connect 17 0 9 0;
#X connect 17 0 19 0;
#X connect 17 1 12 0;
#X connect 17 1 14 0;
#X connect 17 2 16 0;
#X connect 17 2 20 0;
#X connect 17 3 21 0;
#X connect 17 3 24 0;
#X connect 17 4 22 0;
#X connect 17 4 25 0;
#X connect 17 5 10 0;
#X connect 17 5 18 0;
#X connect 17 6 23 0;
#X connect 17 6 26 0;
#X connect 17 7 29 0;
#X connect 17 7 28 0;
#X connect 17 8 40 0;
#X connect 17 8 41 0;
#X connect 20 0 3 0;
#X connect 24 0 3 0;
#X connect 25 0 3 0;
#X connect 26 0 3 0;
#X connect 27 0 11 0;
#X connect 29 0 3 0;
#X connect 30 0 31 0;
#X connect 31 0 37 0;
#X connect 31 1 37 0;
#X connect 31 2 37 0;
#X connect 31 3 33 0;
#X connect 31 4 34 0;
#X connect 31 5 33 0;
#X connect 32 0 4 0;
#X connect 33 0 36 0;
#X connect 34 0 36 0;
#X connect 35 0 38 0;
#X connect 36 0 32 1;
#X connect 37 0 36 0;
#X connect 38 0 36 1;
#X connect 40 0 3 0;
#X coords 0 -1 1 1 160 84 1 40 40;
